<svg xmlns="http://www.w3.org/2000/svg" width="24" height="24" viewBox="0 0 24 24">
  <defs>
    <pattern id="diamond-weave" width="24" height="12" patternUnits="userSpaceOnUse">
      <rect width="24" height="12" fill="#050505"/>
      <path
        d="M6 0 L12 6 L6 12 L0 6 Z"
        fill="#141414"
        stroke="#2a2a2a"
        stroke-width="0.45"
      />
      <path d="M6 1.5 L10.5 6 L6 10.5 L1.5 6 Z" fill="#1a1a1a"/>
      <path d="M6 0 L12 6 L6 6 Z" fill="#222222" opacity="0.35"/>
      <path d="M6 6 L12 6 L6 12 Z" fill="#0a0a0a" opacity="0.45"/>
      <g transform="translate(12, 6)">
        <path
          d="M6 0 L12 6 L6 12 L0 6 Z"
          fill="#121212"
          stroke="#262626"
          stroke-width="0.45"
        />
        <path d="M6 1.5 L10.5 6 L6 10.5 L1.5 6 Z" fill="#181818"/>
        <path d="M6 0 L12 6 L6 6 Z" fill="#1f1f1f" opacity="0.3"/>
        <path d="M6 6 L12 6 L6 12 Z" fill="#080808" opacity="0.4"/>
      </g>
    </pattern>
    <radialGradient id="vignette" cx="50%" cy="42%" r="72%">
      <stop offset="0%" stop-color="#ffffff" stop-opacity="1"/>
      <stop offset="55%" stop-color="#ffffff" stop-opacity="0.55"/>
      <stop offset="100%" stop-color="#000000" stop-opacity="0"/>
    </radialGradient>
    <mask id="vignette-mask">
      <rect width="100%" height="100%" fill="url(#vignette)"/>
    </mask>
  </defs>
  <rect width="100%" height="100%" fill="#000000"/>
  <rect width="100%" height="100%" fill="url(#diamond-weave)" mask="url(#vignette-mask)"/>
</svg>
